<mxfile host="65bd71144e">
    <diagram id="F2tONFXF3S80tZAxkaJ6" name="Page-1">
        <mxGraphModel dx="2059" dy="772" grid="1" gridSize="10" guides="1" tooltips="1" connect="1" arrows="1" fold="1" page="1" pageScale="1" pageWidth="850" pageHeight="1100" math="0" shadow="0">
            <root>
                <mxCell id="0"/>
                <mxCell id="1" parent="0"/>
                <mxCell id="2" value="&lt;font style=&quot;font-size: 20px;&quot;&gt;Current&lt;/font&gt;" style="text;html=1;align=center;verticalAlign=middle;resizable=0;points=[];autosize=1;strokeColor=none;fillColor=none;" vertex="1" parent="1">
                    <mxGeometry x="-50" y="60" width="90" height="40" as="geometry"/>
                </mxCell>
                <mxCell id="3" value="&lt;font style=&quot;font-size: 20px;&quot;&gt;Idea #59b&lt;/font&gt;" style="text;html=1;align=center;verticalAlign=middle;resizable=0;points=[];autosize=1;strokeColor=none;fillColor=none;" vertex="1" parent="1">
                    <mxGeometry x="-60" y="430" width="110" height="40" as="geometry"/>
                </mxCell>
                <mxCell id="17" style="edgeStyle=none;html=1;entryX=0;entryY=0.5;entryDx=0;entryDy=0;startArrow=none;" edge="1" parent="1" source="7" target="5">
                    <mxGeometry relative="1" as="geometry"/>
                </mxCell>
                <mxCell id="23" style="edgeStyle=none;html=1;fontColor=#FFFFFF;startArrow=none;" edge="1" parent="1" source="8" target="6">
                    <mxGeometry relative="1" as="geometry"/>
                </mxCell>
                <mxCell id="4" value="feature 1" style="whiteSpace=wrap;html=1;fillColor=#76608a;fontColor=#ffffff;strokeColor=#432D57;" vertex="1" parent="1">
                    <mxGeometry x="120" y="180" width="120" height="60" as="geometry"/>
                </mxCell>
                <mxCell id="5" value="test" style="whiteSpace=wrap;html=1;fillColor=#e3c800;fontColor=#000000;strokeColor=#B09500;" vertex="1" parent="1">
                    <mxGeometry x="410" y="280" width="120" height="60" as="geometry"/>
                </mxCell>
                <mxCell id="37" style="edgeStyle=none;html=1;entryX=0.5;entryY=0;entryDx=0;entryDy=0;fontColor=#FFFFFF;" edge="1" parent="1" source="6" target="5">
                    <mxGeometry relative="1" as="geometry"/>
                </mxCell>
                <mxCell id="6" value="staging" style="whiteSpace=wrap;html=1;fillColor=#e3c800;fontColor=#000000;strokeColor=#B09500;" vertex="1" parent="1">
                    <mxGeometry x="410" y="180" width="120" height="60" as="geometry"/>
                </mxCell>
                <mxCell id="85" style="edgeStyle=none;html=1;entryX=0.199;entryY=1.08;entryDx=0;entryDy=0;entryPerimeter=0;fontSize=20;fontColor=#FFFFFF;" edge="1" parent="1" source="10" target="7">
                    <mxGeometry relative="1" as="geometry"/>
                </mxCell>
                <mxCell id="10" value="feature 2" style="whiteSpace=wrap;html=1;fillColor=#76608a;fontColor=#ffffff;strokeColor=#432D57;" vertex="1" parent="1">
                    <mxGeometry x="120" y="310" width="120" height="60" as="geometry"/>
                </mxCell>
                <mxCell id="19" value="tenille" style="verticalLabelPosition=bottom;html=1;verticalAlign=top;align=center;strokeColor=#3A5431;fillColor=#6d8764;shape=mxgraph.azure.user;fontColor=#ffffff;" vertex="1" parent="1">
                    <mxGeometry x="401" y="300" width="47.5" height="50" as="geometry"/>
                </mxCell>
                <mxCell id="24" value="#2" style="edgeStyle=none;html=1;fontColor=#FFFFFF;endArrow=none;" edge="1" parent="1" source="4" target="8">
                    <mxGeometry relative="1" as="geometry">
                        <mxPoint x="240" y="210" as="sourcePoint"/>
                        <mxPoint x="410" y="210" as="targetPoint"/>
                    </mxGeometry>
                </mxCell>
                <mxCell id="8" value="court eng" style="verticalLabelPosition=bottom;html=1;verticalAlign=top;align=center;strokeColor=#314354;fillColor=#647687;shape=mxgraph.azure.user;fontColor=#ffffff;" vertex="1" parent="1">
                    <mxGeometry x="310" y="150" width="47.5" height="50" as="geometry"/>
                </mxCell>
                <mxCell id="25" value="#1" style="edgeStyle=none;html=1;entryX=0;entryY=0.5;entryDx=0;entryDy=0;endArrow=none;" edge="1" parent="1" source="4" target="7">
                    <mxGeometry relative="1" as="geometry">
                        <mxPoint x="240" y="236.08695652173913" as="sourcePoint"/>
                        <mxPoint x="410" y="310" as="targetPoint"/>
                    </mxGeometry>
                </mxCell>
                <mxCell id="7" value="&lt;font color=&quot;#ffffff&quot;&gt;flexion&lt;/font&gt;" style="verticalLabelPosition=bottom;html=1;verticalAlign=top;align=center;strokeColor=#BD7000;fillColor=#f0a30a;shape=mxgraph.azure.user;fontColor=#000000;" vertex="1" parent="1">
                    <mxGeometry x="300" y="250" width="47.5" height="50" as="geometry"/>
                </mxCell>
                <mxCell id="26" style="edgeStyle=none;html=1;entryX=0;entryY=0.5;entryDx=0;entryDy=0;startArrow=none;" edge="1" parent="1" source="36" target="29">
                    <mxGeometry relative="1" as="geometry"/>
                </mxCell>
                <mxCell id="51" style="edgeStyle=none;html=1;entryX=0;entryY=0.5;entryDx=0;entryDy=0;fontColor=#FFFFFF;startArrow=none;" edge="1" parent="1" source="52" target="47">
                    <mxGeometry relative="1" as="geometry"/>
                </mxCell>
                <mxCell id="28" value="feature 1" style="whiteSpace=wrap;html=1;fillColor=#76608a;fontColor=#ffffff;strokeColor=#432D57;" vertex="1" parent="1">
                    <mxGeometry x="-50" y="500" width="120" height="60" as="geometry"/>
                </mxCell>
                <mxCell id="39" value="test&lt;br&gt;passes" style="edgeStyle=none;html=1;fontColor=#FFFFFF;" edge="1" parent="1" source="29" target="38">
                    <mxGeometry relative="1" as="geometry"/>
                </mxCell>
                <mxCell id="29" value="test" style="whiteSpace=wrap;html=1;fillColor=#e3c800;fontColor=#000000;strokeColor=#B09500;" vertex="1" parent="1">
                    <mxGeometry x="430" y="630" width="120" height="60" as="geometry"/>
                </mxCell>
                <mxCell id="40" style="edgeStyle=none;html=1;entryX=0;entryY=1;entryDx=0;entryDy=0;fontColor=#FFFFFF;" edge="1" parent="1" source="31" target="29">
                    <mxGeometry relative="1" as="geometry"/>
                </mxCell>
                <mxCell id="31" value="feature 2" style="whiteSpace=wrap;html=1;fillColor=#76608a;fontColor=#ffffff;strokeColor=#432D57;" vertex="1" parent="1">
                    <mxGeometry x="95" y="740" width="120" height="60" as="geometry"/>
                </mxCell>
                <mxCell id="32" value="tenille" style="verticalLabelPosition=bottom;html=1;verticalAlign=top;align=center;strokeColor=#3A5431;fillColor=#6d8764;shape=mxgraph.azure.user;fontColor=#ffffff;" vertex="1" parent="1">
                    <mxGeometry x="430" y="650" width="47.5" height="50" as="geometry"/>
                </mxCell>
                <mxCell id="34" value="court eng" style="verticalLabelPosition=bottom;html=1;verticalAlign=top;align=center;strokeColor=#314354;fillColor=#647687;shape=mxgraph.azure.user;fontColor=#ffffff;" vertex="1" parent="1">
                    <mxGeometry x="60" y="555" width="47.5" height="50" as="geometry"/>
                </mxCell>
                <mxCell id="35" value="" style="edgeStyle=none;html=1;entryX=0;entryY=0.5;entryDx=0;entryDy=0;endArrow=none;startArrow=none;" edge="1" parent="1" source="47" target="36">
                    <mxGeometry relative="1" as="geometry">
                        <mxPoint x="260" y="586.0869565217391" as="sourcePoint"/>
                        <mxPoint x="430" y="660" as="targetPoint"/>
                    </mxGeometry>
                </mxCell>
                <mxCell id="36" value="&lt;font color=&quot;#ffffff&quot;&gt;flexion&lt;/font&gt;" style="verticalLabelPosition=bottom;html=1;verticalAlign=top;align=center;strokeColor=#BD7000;fillColor=#f0a30a;shape=mxgraph.azure.user;fontColor=#000000;" vertex="1" parent="1">
                    <mxGeometry x="337.5" y="600" width="47.5" height="50" as="geometry"/>
                </mxCell>
                <mxCell id="46" style="edgeStyle=none;html=1;entryX=0;entryY=0.5;entryDx=0;entryDy=0;fontColor=#FFFFFF;" edge="1" parent="1" source="38" target="45">
                    <mxGeometry relative="1" as="geometry"/>
                </mxCell>
                <mxCell id="38" value="staging/release" style="whiteSpace=wrap;html=1;fillColor=#e3c800;fontColor=#000000;strokeColor=#B09500;" vertex="1" parent="1">
                    <mxGeometry x="620" y="630" width="120" height="60" as="geometry"/>
                </mxCell>
                <mxCell id="42" style="edgeStyle=none;html=1;entryX=0.5;entryY=0;entryDx=0;entryDy=0;fontColor=#FFFFFF;" edge="1" parent="1" source="41" target="29">
                    <mxGeometry relative="1" as="geometry"/>
                </mxCell>
                <mxCell id="41" value="devex?" style="whiteSpace=wrap;html=1;fillColor=#76608a;fontColor=#ffffff;strokeColor=#432D57;" vertex="1" parent="1">
                    <mxGeometry x="448.5" y="470" width="120" height="60" as="geometry"/>
                </mxCell>
                <mxCell id="44" style="edgeStyle=none;html=1;entryX=0.25;entryY=0;entryDx=0;entryDy=0;fontColor=#FFFFFF;" edge="1" parent="1" source="43" target="29">
                    <mxGeometry relative="1" as="geometry"/>
                </mxCell>
                <mxCell id="43" value="dependency updates?" style="whiteSpace=wrap;html=1;fillColor=#76608a;fontColor=#ffffff;strokeColor=#432D57;" vertex="1" parent="1">
                    <mxGeometry x="300" y="470" width="120" height="60" as="geometry"/>
                </mxCell>
                <mxCell id="45" value="prod" style="whiteSpace=wrap;html=1;fillColor=#e3c800;fontColor=#000000;strokeColor=#B09500;" vertex="1" parent="1">
                    <mxGeometry x="790" y="630" width="120" height="60" as="geometry"/>
                </mxCell>
                <mxCell id="47" value="flexion/exp1" style="whiteSpace=wrap;html=1;fillColor=#f0a30a;fontColor=#000000;strokeColor=#BD7000;" vertex="1" parent="1">
                    <mxGeometry x="180" y="550" width="120" height="60" as="geometry"/>
                </mxCell>
                <mxCell id="53" value="" style="edgeStyle=none;html=1;entryX=0;entryY=0.5;entryDx=0;entryDy=0;fontColor=#FFFFFF;endArrow=none;" edge="1" parent="1" source="28" target="52">
                    <mxGeometry relative="1" as="geometry">
                        <mxPoint x="130" y="561.8181818181818" as="sourcePoint"/>
                        <mxPoint x="180" y="580" as="targetPoint"/>
                    </mxGeometry>
                </mxCell>
                <mxCell id="52" value="&lt;font color=&quot;#ffffff&quot;&gt;flexion dev&lt;/font&gt;" style="verticalLabelPosition=bottom;html=1;verticalAlign=top;align=center;strokeColor=#BD7000;fillColor=#f0a30a;shape=mxgraph.azure.user;fontColor=#000000;" vertex="1" parent="1">
                    <mxGeometry x="95" y="530" width="47.5" height="50" as="geometry"/>
                </mxCell>
                <mxCell id="54" value="&lt;font style=&quot;font-size: 20px;&quot;&gt;Idea #60f&lt;/font&gt;" style="text;html=1;align=center;verticalAlign=middle;resizable=0;points=[];autosize=1;strokeColor=none;fillColor=none;" vertex="1" parent="1">
                    <mxGeometry x="-50" y="890" width="110" height="40" as="geometry"/>
                </mxCell>
                <mxCell id="55" style="edgeStyle=none;html=1;entryX=0;entryY=0.5;entryDx=0;entryDy=0;startArrow=none;" edge="1" parent="1" source="65" target="59">
                    <mxGeometry relative="1" as="geometry"/>
                </mxCell>
                <mxCell id="56" style="edgeStyle=none;html=1;entryX=0;entryY=0.5;entryDx=0;entryDy=0;fontColor=#FFFFFF;startArrow=none;" edge="1" parent="1" source="75" target="73">
                    <mxGeometry relative="1" as="geometry"/>
                </mxCell>
                <mxCell id="57" value="feature 1" style="whiteSpace=wrap;html=1;fillColor=#76608a;fontColor=#ffffff;strokeColor=#432D57;" vertex="1" parent="1">
                    <mxGeometry x="-50" y="990" width="120" height="60" as="geometry"/>
                </mxCell>
                <mxCell id="58" value="test&lt;br&gt;passes" style="edgeStyle=none;html=1;fontColor=#FFFFFF;" edge="1" parent="1" source="59" target="67">
                    <mxGeometry relative="1" as="geometry"/>
                </mxCell>
                <mxCell id="59" value="test" style="whiteSpace=wrap;html=1;fillColor=#e3c800;fontColor=#000000;strokeColor=#B09500;" vertex="1" parent="1">
                    <mxGeometry x="430" y="1120" width="120" height="60" as="geometry"/>
                </mxCell>
                <mxCell id="60" style="edgeStyle=none;html=1;entryX=0;entryY=1;entryDx=0;entryDy=0;fontColor=#FFFFFF;" edge="1" parent="1" source="61" target="59">
                    <mxGeometry relative="1" as="geometry"/>
                </mxCell>
                <mxCell id="61" value="feature 2" style="whiteSpace=wrap;html=1;fillColor=#76608a;fontColor=#ffffff;strokeColor=#432D57;" vertex="1" parent="1">
                    <mxGeometry x="95" y="1230" width="120" height="60" as="geometry"/>
                </mxCell>
                <mxCell id="62" value="tenille" style="verticalLabelPosition=bottom;html=1;verticalAlign=top;align=center;strokeColor=#3A5431;fillColor=#6d8764;shape=mxgraph.azure.user;fontColor=#ffffff;" vertex="1" parent="1">
                    <mxGeometry x="430" y="1140" width="47.5" height="50" as="geometry"/>
                </mxCell>
                <mxCell id="63" value="court eng" style="verticalLabelPosition=bottom;html=1;verticalAlign=top;align=center;strokeColor=#314354;fillColor=#647687;shape=mxgraph.azure.user;fontColor=#ffffff;" vertex="1" parent="1">
                    <mxGeometry x="300" y="1110" width="47.5" height="50" as="geometry"/>
                </mxCell>
                <mxCell id="64" value="" style="edgeStyle=none;html=1;entryX=0;entryY=0.5;entryDx=0;entryDy=0;endArrow=none;startArrow=none;" edge="1" parent="1" source="73" target="65">
                    <mxGeometry relative="1" as="geometry">
                        <mxPoint x="260" y="1076.086956521739" as="sourcePoint"/>
                        <mxPoint x="430" y="1150" as="targetPoint"/>
                    </mxGeometry>
                </mxCell>
                <mxCell id="65" value="&lt;font color=&quot;#ffffff&quot;&gt;flexion&lt;/font&gt;" style="verticalLabelPosition=bottom;html=1;verticalAlign=top;align=center;strokeColor=#BD7000;fillColor=#f0a30a;shape=mxgraph.azure.user;fontColor=#000000;" vertex="1" parent="1">
                    <mxGeometry x="337.5" y="1090" width="47.5" height="50" as="geometry"/>
                </mxCell>
                <mxCell id="66" style="edgeStyle=none;html=1;entryX=0;entryY=0.5;entryDx=0;entryDy=0;fontColor=#FFFFFF;" edge="1" parent="1" source="67" target="72">
                    <mxGeometry relative="1" as="geometry"/>
                </mxCell>
                <mxCell id="67" value="staging/release" style="whiteSpace=wrap;html=1;fillColor=#e3c800;fontColor=#000000;strokeColor=#B09500;" vertex="1" parent="1">
                    <mxGeometry x="620" y="1120" width="120" height="60" as="geometry"/>
                </mxCell>
                <mxCell id="79" style="edgeStyle=none;html=1;fontColor=#FFFFFF;" edge="1" parent="1" source="69" target="76">
                    <mxGeometry relative="1" as="geometry"/>
                </mxCell>
                <mxCell id="69" value="devex?" style="whiteSpace=wrap;html=1;fillColor=#76608a;fontColor=#ffffff;strokeColor=#432D57;" vertex="1" parent="1">
                    <mxGeometry x="520" y="890" width="120" height="60" as="geometry"/>
                </mxCell>
                <mxCell id="78" style="edgeStyle=none;html=1;entryX=0.25;entryY=0;entryDx=0;entryDy=0;fontColor=#FFFFFF;" edge="1" parent="1" source="71" target="76">
                    <mxGeometry relative="1" as="geometry"/>
                </mxCell>
                <mxCell id="71" value="dependency updates?" style="whiteSpace=wrap;html=1;fillColor=#76608a;fontColor=#ffffff;strokeColor=#432D57;" vertex="1" parent="1">
                    <mxGeometry x="337.5" y="890" width="120" height="60" as="geometry"/>
                </mxCell>
                <mxCell id="72" value="prod" style="whiteSpace=wrap;html=1;fillColor=#e3c800;fontColor=#000000;strokeColor=#B09500;" vertex="1" parent="1">
                    <mxGeometry x="790" y="1120" width="120" height="60" as="geometry"/>
                </mxCell>
                <mxCell id="73" value="flexion/exp1" style="whiteSpace=wrap;html=1;fillColor=#f0a30a;fontColor=#000000;strokeColor=#BD7000;" vertex="1" parent="1">
                    <mxGeometry x="180" y="1040" width="120" height="60" as="geometry"/>
                </mxCell>
                <mxCell id="74" value="" style="edgeStyle=none;html=1;entryX=0;entryY=0.5;entryDx=0;entryDy=0;fontColor=#FFFFFF;endArrow=none;" edge="1" parent="1" source="57" target="75">
                    <mxGeometry relative="1" as="geometry">
                        <mxPoint x="130" y="1051.8181818181818" as="sourcePoint"/>
                        <mxPoint x="180" y="1070" as="targetPoint"/>
                    </mxGeometry>
                </mxCell>
                <mxCell id="75" value="&lt;font color=&quot;#ffffff&quot;&gt;flexion&lt;/font&gt;" style="verticalLabelPosition=bottom;html=1;verticalAlign=top;align=center;strokeColor=#BD7000;fillColor=#f0a30a;shape=mxgraph.azure.user;fontColor=#000000;" vertex="1" parent="1">
                    <mxGeometry x="95" y="1020" width="47.5" height="50" as="geometry"/>
                </mxCell>
                <mxCell id="80" style="edgeStyle=none;html=1;entryX=0.5;entryY=0;entryDx=0;entryDy=0;fontColor=#FFFFFF;" edge="1" parent="1" source="76" target="59">
                    <mxGeometry relative="1" as="geometry"/>
                </mxCell>
                <mxCell id="76" value="devex/exp1/dev" style="whiteSpace=wrap;html=1;fillColor=#e3c800;fontColor=#000000;strokeColor=#B09500;" vertex="1" parent="1">
                    <mxGeometry x="430" y="1010" width="120" height="60" as="geometry"/>
                </mxCell>
                <mxCell id="82" style="edgeStyle=none;html=1;entryX=0.595;entryY=-0.031;entryDx=0;entryDy=0;entryPerimeter=0;fontColor=#FFFFFF;" edge="1" parent="1" source="81" target="6">
                    <mxGeometry relative="1" as="geometry"/>
                </mxCell>
                <mxCell id="81" value="devex/opex" style="whiteSpace=wrap;html=1;fillColor=#76608a;fontColor=#ffffff;strokeColor=#432D57;" vertex="1" parent="1">
                    <mxGeometry x="477.5" y="60" width="120" height="60" as="geometry"/>
                </mxCell>
                <mxCell id="84" style="edgeStyle=none;html=1;entryX=0.25;entryY=0;entryDx=0;entryDy=0;fontColor=#FFFFFF;" edge="1" parent="1" source="83" target="6">
                    <mxGeometry relative="1" as="geometry"/>
                </mxCell>
                <mxCell id="83" value="dependency updates" style="whiteSpace=wrap;html=1;fillColor=#76608a;fontColor=#ffffff;strokeColor=#432D57;" vertex="1" parent="1">
                    <mxGeometry x="337.5" y="60" width="120" height="60" as="geometry"/>
                </mxCell>
                <mxCell id="87" value="&lt;ul&gt;&lt;li style=&quot;text-align: left;&quot;&gt;&lt;span style=&quot;background-color: initial;&quot;&gt;Does this really need the prod data set to be tested?&lt;/span&gt;&lt;/li&gt;&lt;li&gt;UX/UI Review?&lt;/li&gt;&lt;li&gt;Painpoint: Court Eng re-reviews entire PR into Test if it fails&lt;br&gt;&lt;br&gt;&lt;/li&gt;&lt;/ul&gt;" style="text;html=1;align=left;verticalAlign=middle;resizable=0;points=[];autosize=1;strokeColor=none;fillColor=none;fontSize=20;fontColor=#FFFFFF;" vertex="1" parent="1">
                    <mxGeometry x="540" y="315" width="590" height="170" as="geometry"/>
                </mxCell>
                <mxCell id="89" value="&lt;font color=&quot;#ffffff&quot;&gt;flexion ui/ux&lt;/font&gt;" style="verticalLabelPosition=bottom;html=1;verticalAlign=top;align=center;strokeColor=#BD7000;fillColor=#f0a30a;shape=mxgraph.azure.user;fontColor=#000000;" vertex="1" parent="1">
                    <mxGeometry x="210" y="600" width="47.5" height="50" as="geometry"/>
                </mxCell>
                <mxCell id="92" value="court eng" style="verticalLabelPosition=bottom;html=1;verticalAlign=top;align=center;strokeColor=#314354;fillColor=#647687;shape=mxgraph.azure.user;fontColor=#ffffff;" vertex="1" parent="1">
                    <mxGeometry x="310" y="630" width="47.5" height="50" as="geometry"/>
                </mxCell>
                <mxCell id="93" value="&lt;font style=&quot;font-size: 20px;&quot;&gt;Idea #77x&lt;/font&gt;" style="text;html=1;align=center;verticalAlign=middle;resizable=0;points=[];autosize=1;strokeColor=none;fillColor=none;" vertex="1" parent="1">
                    <mxGeometry x="-90" y="1380" width="110" height="40" as="geometry"/>
                </mxCell>
                <mxCell id="95" style="edgeStyle=none;html=1;entryX=0;entryY=0.5;entryDx=0;entryDy=0;fontColor=#FFFFFF;startArrow=none;" edge="1" parent="1" source="114" target="112">
                    <mxGeometry relative="1" as="geometry"/>
                </mxCell>
                <mxCell id="96" value="feature 1" style="whiteSpace=wrap;html=1;fillColor=#76608a;fontColor=#ffffff;strokeColor=#432D57;" vertex="1" parent="1">
                    <mxGeometry x="-90" y="1610" width="120" height="60" as="geometry"/>
                </mxCell>
                <mxCell id="97" value="test&lt;br&gt;passes" style="edgeStyle=none;html=1;fontColor=#FFFFFF;" edge="1" parent="1" source="98" target="106">
                    <mxGeometry relative="1" as="geometry"/>
                </mxCell>
                <mxCell id="98" value="test" style="whiteSpace=wrap;html=1;fillColor=#e3c800;fontColor=#000000;strokeColor=#B09500;" vertex="1" parent="1">
                    <mxGeometry x="597.5" y="1610" width="120" height="60" as="geometry"/>
                </mxCell>
                <mxCell id="101" value="tenille" style="verticalLabelPosition=bottom;html=1;verticalAlign=top;align=center;strokeColor=#3A5431;fillColor=#6d8764;shape=mxgraph.azure.user;fontColor=#ffffff;" vertex="1" parent="1">
                    <mxGeometry x="656.25" y="1650" width="47.5" height="50" as="geometry"/>
                </mxCell>
                <mxCell id="103" value="" style="edgeStyle=none;html=1;entryX=0;entryY=0.5;entryDx=0;entryDy=0;endArrow=none;startArrow=none;" edge="1" parent="1" source="112" target="104">
                    <mxGeometry relative="1" as="geometry">
                        <mxPoint x="250" y="1536.086956521739" as="sourcePoint"/>
                        <mxPoint x="420" y="1610" as="targetPoint"/>
                    </mxGeometry>
                </mxCell>
                <mxCell id="120" style="edgeStyle=none;html=1;entryX=0;entryY=0.5;entryDx=0;entryDy=0;fontSize=20;fontColor=#FFFFFF;" edge="1" parent="1" source="104" target="117">
                    <mxGeometry relative="1" as="geometry"/>
                </mxCell>
                <mxCell id="104" value="&lt;font color=&quot;#ffffff&quot;&gt;flexion dev&lt;/font&gt;" style="verticalLabelPosition=bottom;html=1;verticalAlign=top;align=center;strokeColor=#BD7000;fillColor=#f0a30a;shape=mxgraph.azure.user;fontColor=#000000;" vertex="1" parent="1">
                    <mxGeometry x="320" y="1615" width="47.5" height="50" as="geometry"/>
                </mxCell>
                <mxCell id="105" style="edgeStyle=none;html=1;entryX=0;entryY=0.5;entryDx=0;entryDy=0;fontColor=#FFFFFF;" edge="1" parent="1" source="106" target="111">
                    <mxGeometry relative="1" as="geometry"/>
                </mxCell>
                <mxCell id="106" value="staging/release" style="whiteSpace=wrap;html=1;fillColor=#e3c800;fontColor=#000000;strokeColor=#B09500;" vertex="1" parent="1">
                    <mxGeometry x="787.5" y="1610" width="120" height="60" as="geometry"/>
                </mxCell>
                <mxCell id="111" value="prod" style="whiteSpace=wrap;html=1;fillColor=#e3c800;fontColor=#000000;strokeColor=#B09500;" vertex="1" parent="1">
                    <mxGeometry x="957.5" y="1610" width="120" height="60" as="geometry"/>
                </mxCell>
                <mxCell id="112" value="flexion/exp1" style="whiteSpace=wrap;html=1;fillColor=#f0a30a;fontColor=#000000;strokeColor=#BD7000;" vertex="1" parent="1">
                    <mxGeometry x="137.5" y="1610" width="120" height="60" as="geometry"/>
                </mxCell>
                <mxCell id="113" value="" style="edgeStyle=none;html=1;entryX=0;entryY=0.5;entryDx=0;entryDy=0;fontColor=#FFFFFF;endArrow=none;" edge="1" parent="1" source="96" target="114">
                    <mxGeometry relative="1" as="geometry">
                        <mxPoint x="120" y="1511.8181818181818" as="sourcePoint"/>
                        <mxPoint x="170" y="1530" as="targetPoint"/>
                    </mxGeometry>
                </mxCell>
                <mxCell id="114" value="&lt;font color=&quot;#ffffff&quot;&gt;flexion dev&lt;/font&gt;" style="verticalLabelPosition=bottom;html=1;verticalAlign=top;align=center;strokeColor=#BD7000;fillColor=#f0a30a;shape=mxgraph.azure.user;fontColor=#000000;" vertex="1" parent="1">
                    <mxGeometry x="60" y="1615" width="47.5" height="50" as="geometry"/>
                </mxCell>
                <mxCell id="115" value="&lt;font color=&quot;#ffffff&quot;&gt;flexion ui/ux&lt;/font&gt;" style="verticalLabelPosition=bottom;html=1;verticalAlign=top;align=center;strokeColor=#BD7000;fillColor=#f0a30a;shape=mxgraph.azure.user;fontColor=#000000;" vertex="1" parent="1">
                    <mxGeometry x="192.5" y="1660" width="47.5" height="50" as="geometry"/>
                </mxCell>
                <mxCell id="116" value="court eng" style="verticalLabelPosition=bottom;html=1;verticalAlign=top;align=center;strokeColor=#314354;fillColor=#647687;shape=mxgraph.azure.user;fontColor=#ffffff;" vertex="1" parent="1">
                    <mxGeometry x="280" y="1640" width="47.5" height="50" as="geometry"/>
                </mxCell>
                <mxCell id="119" style="edgeStyle=none;html=1;entryX=0;entryY=0.5;entryDx=0;entryDy=0;fontSize=20;fontColor=#FFFFFF;" edge="1" parent="1" source="117" target="98">
                    <mxGeometry relative="1" as="geometry"/>
                </mxCell>
                <mxCell id="117" value="feature-1-to-test" style="whiteSpace=wrap;html=1;fillColor=#e3c800;fontColor=#000000;strokeColor=#B09500;" vertex="1" parent="1">
                    <mxGeometry x="410" y="1610" width="120" height="60" as="geometry"/>
                </mxCell>
                <mxCell id="124" style="edgeStyle=none;html=1;fontColor=#FFFFFF;" edge="1" parent="1" source="125" target="128">
                    <mxGeometry relative="1" as="geometry"/>
                </mxCell>
                <mxCell id="125" value="devex?" style="whiteSpace=wrap;html=1;fillColor=#76608a;fontColor=#ffffff;strokeColor=#432D57;" vertex="1" parent="1">
                    <mxGeometry x="688.75" y="1380" width="120" height="60" as="geometry"/>
                </mxCell>
                <mxCell id="126" style="edgeStyle=none;html=1;entryX=0.25;entryY=0;entryDx=0;entryDy=0;fontColor=#FFFFFF;" edge="1" parent="1" source="127" target="128">
                    <mxGeometry relative="1" as="geometry"/>
                </mxCell>
                <mxCell id="127" value="dependency updates?" style="whiteSpace=wrap;html=1;fillColor=#76608a;fontColor=#ffffff;strokeColor=#432D57;" vertex="1" parent="1">
                    <mxGeometry x="506.25" y="1380" width="120" height="60" as="geometry"/>
                </mxCell>
                <mxCell id="129" style="edgeStyle=none;html=1;entryX=0.5;entryY=0;entryDx=0;entryDy=0;fontSize=20;fontColor=#FFFFFF;" edge="1" parent="1" source="128" target="98">
                    <mxGeometry relative="1" as="geometry"/>
                </mxCell>
                <mxCell id="128" value="devex/exp1/dev" style="whiteSpace=wrap;html=1;fillColor=#e3c800;fontColor=#000000;strokeColor=#B09500;" vertex="1" parent="1">
                    <mxGeometry x="598.75" y="1500" width="120" height="60" as="geometry"/>
                </mxCell>
            </root>
        </mxGraphModel>
    </diagram>
</mxfile>
